<?xml version="1.0" standalone="no"?>
<!DOCTYPE svg PUBLIC "-//W3C//DTD SVG 20010904//EN"
 "http://www.w3.org/TR/2001/REC-SVG-20010904/DTD/svg10.dtd">
<svg version="1.0" xmlns="http://www.w3.org/2000/svg"
 width="863.000000pt" height="435.000000pt" viewBox="0 0 863.000000 435.000000"
 preserveAspectRatio="xMidYMid meet">

<g transform="translate(0.000000,435.000000) scale(0.100000,-0.100000)"
fill="#000000" stroke="none">
<path d="M6100 2200 l0 -1320 312 2 312 3 19 78 19 77 60 -55 c105 -97 214
-138 368 -138 119 1 205 26 287 86 96 71 137 137 160 256 19 94 30 1030 15
1242 -10 153 -31 215 -95 286 -95 105 -294 154 -486 119 -103 -18 -175 -53
-246 -118 l-55 -50 -2 424 -3 423 -332 3 -333 2 0 -1320z m856 227 c14 -17 25
-46 29 -79 4 -29 5 -278 3 -553 -2 -372 -6 -505 -15 -521 -24 -41 -119 -58
-160 -29 -12 9 -27 32 -33 53 -14 51 -14 1071 0 1109 17 44 38 55 99 50 43 -3
59 -9 77 -30z"/>
<path d="M1950 2175 l0 -1315 300 0 300 0 1 743 c1 408 4 780 7 827 7 81 12
50 126 -743 l120 -827 216 0 216 0 116 857 116 858 1 -857 1 -858 300 0 300 0
0 1315 0 1315 -447 -2 -447 -3 -76 -587 c-41 -323 -77 -589 -80 -592 -3 -2
-34 194 -69 437 -73 510 -100 693 -107 725 l-4 22 -445 0 -445 0 0 -1315z"/>
<path d="M4310 2175 l0 -1315 503 0 c276 0 545 5 597 10 231 22 367 112 419
277 38 118 43 266 38 1078 -3 514 -8 790 -16 830 -27 144 -130 284 -253 344
-153 75 -303 91 -865 91 l-423 0 0 -1315z m838 841 c17 -9 37 -26 44 -39 10
-17 13 -183 13 -782 0 -847 2 -822 -65 -856 -19 -9 -59 -20 -87 -23 l-53 -7 0
867 0 867 58 -6 c32 -2 73 -12 90 -21z"/>
<path d="M1040 2160 l0 -1320 345 0 345 0 -2 1318 -3 1317 -342 3 -343 2 0
-1320z"/>
</g>
</svg>
