<?xml version="1.0" standalone="no"?>
<!DOCTYPE svg PUBLIC "-//W3C//DTD SVG 20010904//EN"
 "http://www.w3.org/TR/2001/REC-SVG-20010904/DTD/svg10.dtd">
<svg version="1.0" xmlns="http://www.w3.org/2000/svg"
 width="209.000000pt" height="213.000000pt" viewBox="0 0 209.000000 213.000000"
 preserveAspectRatio="xMidYMid meet">

<g transform="translate(0.000000,213.000000) scale(0.100000,-0.100000)"
fill="#000000" stroke="none">
<path d="M680 2048 c-19 -11 -45 -27 -58 -35 l-23 -14 60 -77 c33 -42 58 -78
56 -80 -2 -2 -21 2 -42 9 -21 7 -68 13 -105 12 -82 0 -171 -39 -233 -102 l-39
-41 76 0 c80 0 178 -17 178 -32 0 -4 -11 -8 -24 -8 -43 0 -109 -30 -218 -98
l-107 -67 37 -9 c20 -5 38 -10 40 -11 2 -2 -20 -32 -48 -67 -66 -81 -136 -224
-156 -319 -12 -54 -15 -107 -11 -199 6 -149 28 -234 95 -370 38 -78 61 -110
132 -180 135 -135 264 -212 445 -266 127 -38 346 -45 485 -16 246 51 458 171
608 346 67 78 115 175 149 301 36 139 39 341 5 458 -54 187 -153 320 -337 448
-38 27 -89 65 -113 84 -27 22 -74 44 -128 61 -76 24 -96 26 -199 22 -100 -4
-115 -2 -115 11 0 28 38 78 69 92 17 8 31 17 31 21 0 4 -16 19 -36 34 -27 21
-50 29 -93 32 -73 5 -121 -18 -185 -89 -26 -28 -48 -50 -50 -48 -1 2 -23 51
-48 109 -25 57 -49 105 -54 107 -5 1 -25 -7 -44 -19z"/>
</g>
</svg>
